<svg xmlns="http://www.w3.org/2000/svg" viewBox="0 0 1200 630" width="1200" height="630">
    <defs>
        <linearGradient id="bg" x1="0" y1="0" x2="1" y2="1">
            <stop offset="0" stop-color="#0B0D12"/>
            <stop offset="1" stop-color="#11141B"/>
        </linearGradient>
        <linearGradient id="grad" x1="0" y1="0" x2="1" y2="1">
            <stop offset="0" stop-color="#7C5CFF"/>
            <stop offset="1" stop-color="#00D4FF"/>
        </linearGradient>
        <radialGradient id="orb1" cx="0.2" cy="0.15" r="0.7">
            <stop offset="0" stop-color="#7C5CFF" stop-opacity="0.5"/>
            <stop offset="1" stop-color="#7C5CFF" stop-opacity="0"/>
        </radialGradient>
        <radialGradient id="orb2" cx="0.9" cy="0.8" r="0.7">
            <stop offset="0" stop-color="#00D4FF" stop-opacity="0.4"/>
            <stop offset="1" stop-color="#00D4FF" stop-opacity="0"/>
        </radialGradient>
    </defs>
    <rect width="1200" height="630" fill="url(#bg)"/>
    <rect width="1200" height="630" fill="url(#orb1)"/>
    <rect width="1200" height="630" fill="url(#orb2)"/>
    <path fill="url(#grad)" d="M110 120l3 6.2 6.8 1-4.9 4.8 1.2 6.8L110 135l-6.1 3.8 1.2-6.8-4.9-4.8 6.8-1z" opacity="0.95"/>
    <circle cx="124" cy="112" r="2.4" fill="#00D4FF"/>
    <text x="142" y="128" font-family="Segoe UI, Arial, sans-serif" font-size="30" font-weight="700" fill="#FFFFFF">Tool<tspan fill="url(#grad)">Topia</tspan></text>
    <text x="110" y="300" font-family="Segoe UI, Arial, sans-serif" font-size="72" font-weight="800" fill="#FFFFFF">Discover the Best AI Tools</text>
    <text x="110" y="360" font-family="Segoe UI, Arial, sans-serif" font-size="72" font-weight="800" fill="url(#grad)">in One Place.</text>
    <text x="110" y="420" font-family="Segoe UI, Arial, sans-serif" font-size="28" fill="#9CA3AF">Search, compare and explore thousands of AI tools — 100% free.</text>
    <rect x="110" y="480" width="260" height="58" rx="29" fill="url(#grad)"/>
    <text x="240" y="519" font-family="Segoe UI, Arial, sans-serif" font-size="24" font-weight="700" fill="#FFFFFF" text-anchor="middle">Explore AI Tools</text>
</svg>